HIERARCHY
ROOT Hips
{
    OFFSET 0.000000 0.000000 0.000000
    CHANNELS 6 Xposition Yposition Zposition Zrotation Xrotation Yrotation
    JOINT Spine
    {
        OFFSET 0.000005 7.889263 -0.000018
        CHANNELS 3 Zrotation Xrotation Yrotation
        JOINT Spine1
        {
            OFFSET -0.000003 20.943708 0.000015
            CHANNELS 3 Zrotation Xrotation Yrotation
            JOINT Neck
            {
                OFFSET -0.000000 22.222878 0.000006
                CHANNELS 3 Zrotation Xrotation Yrotation
                JOINT Head
                {
                    OFFSET 0.000000 14.209292 1.902201
                    CHANNELS 3 Zrotation Xrotation Yrotation
                    End Site
                    {
                        OFFSET 0.000000 19.022141 0.000000
                    }
                }
            }
            JOINT LeftShoulder
            {
                OFFSET 3.797838 16.121197 -0.677315
                CHANNELS 3 Zrotation Xrotation Yrotation
                JOINT LeftArm
                {
                    OFFSET 11.576588 0.000001 -0.000001
                    CHANNELS 3 Zrotation Xrotation Yrotation
                    JOINT LeftForeArm
                    {
                        OFFSET 29.906410 0.000015 -0.000016
                        CHANNELS 3 Zrotation Xrotation Yrotation
                        JOINT LeftHand
                        {
                            OFFSET 24.318321 -0.000008 -0.000001
                            CHANNELS 3 Zrotation Xrotation Yrotation
                            JOINT LeftHandThumb1
                            {
                                OFFSET 1.987815 -2.258879 3.162430
                                CHANNELS 3 Zrotation Xrotation Yrotation
                                JOINT LeftHandThumb2
                                {
                                    OFFSET 3.002314 -0.000008 0.000000
                                    CHANNELS 3 Zrotation Xrotation Yrotation
                                    JOINT LeftHandThumb3
                                    {
                                        OFFSET 2.566099 0.000003 0.000002
                                        CHANNELS 3 Zrotation Xrotation Yrotation
                                        End Site
                                        {
                                            OFFSET 2.440626 0.000000 0.000000
                                        }
                                    }
                                }
                            }
                            JOINT LeftHandIndex1
                            {
                                OFFSET 8.131962 -0.000002 3.162430
                                CHANNELS 3 Zrotation Xrotation Yrotation
                                JOINT LeftHandIndex2
                                {
                                    OFFSET 4.517782 0.000004 0.000004
                                    CHANNELS 3 Zrotation Xrotation Yrotation
                                    JOINT LeftHandIndex3
                                    {
                                        OFFSET 2.258868 -0.000002 -0.000006
                                        CHANNELS 3 Zrotation Xrotation Yrotation
                                        End Site
                                        {
                                            OFFSET 2.148437 0.000000 0.000000
                                        }
                                    }
                                }
                            }
                            JOINT LeftHandMiddle1
                            {
                                OFFSET 8.131986 -0.000003 1.048133
                                CHANNELS 3 Zrotation Xrotation Yrotation
                                JOINT LeftHandMiddle2
                                {
                                    OFFSET 4.969554 0.000002 0.000007
                                    CHANNELS 3 Zrotation Xrotation Yrotation
                                    JOINT LeftHandMiddle3
                                    {
                                        OFFSET 2.710641 -0.000003 -0.000003
                                        CHANNELS 3 Zrotation Xrotation Yrotation
                                        End Site
                                        {
                                            OFFSET 2.578118 0.000000 0.000000
                                        }
                                    }
                                }
                            }
                            JOINT LeftHandRing1
                            {
                                OFFSET 7.680179 -0.000003 -1.048122
                                CHANNELS 3 Zrotation Xrotation Yrotation
                                JOINT LeftHandRing2
                                {
                                    OFFSET 4.517781 0.000004 0.000004
                                    CHANNELS 3 Zrotation Xrotation Yrotation
                                    JOINT LeftHandRing3
                                    {
                                        OFFSET 2.258869 -0.000001 -0.000006
                                        CHANNELS 3 Zrotation Xrotation Yrotation
                                        End Site
                                        {
                                            OFFSET 2.148437 0.000000 0.000000
                                        }
                                    }
                                }
                            }
                            JOINT LeftHandPinky1
                            {
                                OFFSET 7.228428 -0.000001 -3.162421
                                CHANNELS 3 Zrotation Xrotation Yrotation
                                JOINT LeftHandPinky2
                                {
                                    OFFSET 3.614189 0.000000 -0.000007
                                    CHANNELS 3 Zrotation Xrotation Yrotation
                                    JOINT LeftHandPinky3
                                    {
                                        OFFSET 1.807095 -0.000001 -0.000004
                                        CHANNELS 3 Zrotation Xrotation Yrotation
                                        End Site
                                        {
                                            OFFSET 1.718745 0.000000 0.000000
                                        }
                                    }
                                }
                            }
                        }
                    }
                }
            }
            JOINT RightShoulder
            {
                OFFSET -3.797830 16.121197 -0.677299
                CHANNELS 3 Zrotation Xrotation Yrotation
                JOINT RightArm
                {
                    OFFSET -11.576583 -0.000001 -0.000013
                    CHANNELS 3 Zrotation Xrotation Yrotation
                    JOINT RightForeArm
                    {
                        OFFSET -29.906422 0.000009 0.000013
                        CHANNELS 3 Zrotation Xrotation Yrotation
                        JOINT RightHand
                        {
                            OFFSET -24.318344 0.000016 0.000009
                            CHANNELS 3 Zrotation Xrotation Yrotation
                            JOINT RightHandThumb1
                            {
                                OFFSET -1.987817 -2.258877 3.162438
                                CHANNELS 3 Zrotation Xrotation Yrotation
                                JOINT RightHandThumb2
                                {
                                    OFFSET -3.002301 -0.000006 0.000005
                                    CHANNELS 3 Zrotation Xrotation Yrotation
                                    JOINT RightHandThumb3
                                    {
                                        OFFSET -2.566068 0.000003 -0.000004
                                        CHANNELS 3 Zrotation Xrotation Yrotation
                                        End Site
                                        {
                                            OFFSET -2.440626 0.000000 0.000000
                                        }
                                    }
                                }
                            }
                            JOINT RightHandIndex1
                            {
                                OFFSET -8.131976 -0.000003 3.162441
                                CHANNELS 3 Zrotation Xrotation Yrotation
                                JOINT RightHandIndex2
                                {
                                    OFFSET -4.517741 0.000003 0.000000
                                    CHANNELS 3 Zrotation Xrotation Yrotation
                                    JOINT RightHandIndex3
                                    {
                                        OFFSET -2.258893 -0.000001 0.000007
                                        CHANNELS 3 Zrotation Xrotation Yrotation
                                        End Site
                                        {
                                            OFFSET -2.148437 0.000000 0.000000
                                        }
                                    }
                                }
                            }
                            JOINT RightHandMiddle1
                            {
                                OFFSET -8.131956 -0.000006 1.048121
                                CHANNELS 3 Zrotation Xrotation Yrotation
                                JOINT RightHandMiddle2
                                {
                                    OFFSET -4.969538 0.000001 0.000005
                                    CHANNELS 3 Zrotation Xrotation Yrotation
                                    JOINT RightHandMiddle3
                                    {
                                        OFFSET -2.710644 0.000002 0.000000
                                        CHANNELS 3 Zrotation Xrotation Yrotation
                                        End Site
                                        {
                                            OFFSET -2.578118 0.000000 0.000000
                                        }
                                    }
                                }
                            }
                            JOINT RightHandRing1
                            {
                                OFFSET -7.680204 -0.000001 -1.048112
                                CHANNELS 3 Zrotation Xrotation Yrotation
                                JOINT RightHandRing2
                                {
                                    OFFSET -4.517741 0.000004 0.000000
                                    CHANNELS 3 Zrotation Xrotation Yrotation
                                    JOINT RightHandRing3
                                    {
                                        OFFSET -2.258893 -0.000002 0.000006
                                        CHANNELS 3 Zrotation Xrotation Yrotation
                                        End Site
                                        {
                                            OFFSET -2.148437 0.000000 0.000000
                                        }
                                    }
                                }
                            }
                            JOINT RightHandPinky1
                            {
                                OFFSET -7.228434 -0.000004 -3.162422
                                CHANNELS 3 Zrotation Xrotation Yrotation
                                JOINT RightHandPinky2
                                {
                                    OFFSET -3.614192 0.000003 0.000000
                                    CHANNELS 3 Zrotation Xrotation Yrotation
                                    JOINT RightHandPinky3
                                    {
                                        OFFSET -1.807096 0.000001 0.000001
                                        CHANNELS 3 Zrotation Xrotation Yrotation
                                        End Site
                                        {
                                            OFFSET -1.718745 0.000000 0.000000
                                        }
                                    }
                                }
                            }
                        }
                    }
                }
            }
        }
    }
    JOINT LeftUpLeg
    {
        OFFSET 9.511073 -0.000001 0.000009
        CHANNELS 3 Zrotation Xrotation Yrotation
        JOINT LeftLeg
        {
            OFFSET 0.000004 -43.875637 0.000011
            CHANNELS 3 Zrotation Xrotation Yrotation
            JOINT LeftFoot
            {
                OFFSET 0.000007 -35.354156 -0.000013
                CHANNELS 3 Zrotation Xrotation Yrotation
                JOINT LeftToeBase
                {
                    OFFSET 0.000004 -6.182193 14.266595
                    CHANNELS 3 Zrotation Xrotation Yrotation
                    End Site
                    {
                        OFFSET 0.000000 0.000000 3.804428
                    }
                }
            }
        }
    }
    JOINT RightUpLeg
    {
        OFFSET -9.511072 0.000001 -0.000009
        CHANNELS 3 Zrotation Xrotation Yrotation
        JOINT RightLeg
        {
            OFFSET -0.000004 -43.875633 0.000007
            CHANNELS 3 Zrotation Xrotation Yrotation
            JOINT RightFoot
            {
                OFFSET -0.000006 -35.354145 0.000010
                CHANNELS 3 Zrotation Xrotation Yrotation
                JOINT RightToeBase
                {
                    OFFSET -0.000004 -6.182193 14.266592
                    CHANNELS 3 Zrotation Xrotation Yrotation
                    End Site
                    {
                        OFFSET 0.000000 0.000000 3.804428
                    }
                }
            }
        }
    }
}
MOTION
Frames:    4
Frame Time:    0.002778
6.425823    92.525497    600.914185    1.641531    -3.624491    -159.670837    -0.109130    4.050226    2.482172    -0.545647    4.050051    2.513004    4.225913    8.427859    -19.990240    4.225914    8.427860    -19.990240    8.784697    -1.019827    3.876930    -65.154610    27.371258    -12.794309    -22.238487    -18.766615    -36.085449    32.528603    2.414278    4.296161    47.448208    38.866428    -34.355030    -35.000000    -0.000001    0.000002    -0.000000    0.000000    -0.000000    -0.000003    9.999999    0.000000    -0.000000    0.000000    -0.000000    -0.000000    0.000000    -0.000000    -0.000000    0.000000    -0.000000    -0.000000    0.000000    -0.000000    -0.000000    0.000000    -0.000000    -0.000000    0.000000    -0.000000    -0.000000    0.000000    -0.000000    -0.000000    0.000000    -0.000000    -0.000007    -10.000001    -0.000001    -0.000000    0.000000    -0.000000    -0.000000    0.000000    -0.000000    -6.508504    -0.548066    -0.829023    50.416801    -2.132846    37.811665    15.076782    6.344208    48.863369    -58.627754    12.592438    -7.658677    -47.448215    38.866428    34.355030    35.000000    0.000000    -0.000003    -0.000000    0.000000    -0.000000    -0.000007    9.999994    -0.000008    -0.000000    0.000000    -0.000000    -0.000000    0.000000    -0.000000    -0.000000    0.000000    -0.000000    -0.000000    0.000000    -0.000000    -0.000000    0.000000    -0.000000    -0.000000    0.000000    -0.000000    -0.000000    0.000000    -0.000000    -0.000000    0.000000    -0.000000    -0.000004    -10.000003    -0.000005    -0.000000    0.000000    -0.000000    -0.000000    0.000000    -0.000000    12.950779    -15.069607    -1.788272    -0.000001    22.722237    -0.000002    -9.170444    -11.341743    -1.168402    -0.000000    -0.322371    -0.000003    -12.252121    -14.265471    -1.410004    0.000002    31.186470    -0.000001    14.960176    -15.820320    -21.328030    -0.000000    -3.160769    0.000000    
6.437326    92.529587    600.908875    1.649977    -3.631530    -159.712860    -0.109252    4.047359    2.471905    -0.546257    4.047184    2.502746    4.228141    8.381042    -19.971231    4.228143    8.381042    -19.971231    8.810006    -0.994775    3.872680    -65.290070    27.468454    -12.652574    -22.254976    -18.876385    -35.983414    32.311913    2.395117    4.302272    47.448208    38.866428    -34.355030    -34.999996    0.000002    -0.000001    -0.000000    0.000000    -0.000000    -0.000000    10.000001    0.000002    -0.000000    0.000000    -0.000000    -0.000000    0.000000    -0.000000    -0.000000    0.000000    -0.000000    -0.000000    0.000000    -0.000000    -0.000000    0.000000    -0.000000    -0.000000    0.000000    -0.000000    -0.000000    0.000000    -0.000000    -0.000000    0.000000    -0.000000    -0.000003    -10.000000    0.000002    -0.000000    0.000000    -0.000000    -0.000000    0.000000    -0.000000    -6.499610    -0.551318    -0.816434    50.472973    -2.271183    37.684231    15.193437    6.627103    49.187088    -58.556694    12.652724    -7.714960    -47.448227    38.866440    34.355030    34.999996    0.000004    0.000010    -0.000000    0.000000    -0.000000    -0.000001    9.999999    -0.000006    -0.000000    0.000000    -0.000000    -0.000000    0.000000    -0.000000    -0.000000    0.000000    -0.000000    -0.000000    0.000000    -0.000000    -0.000000    0.000000    -0.000000    -0.000000    0.000000    -0.000000    -0.000000    0.000000    -0.000000    -0.000000    0.000000    -0.000000    -0.000000    -10.000003    -0.000000    -0.000000    0.000000    -0.000000    -0.000000    0.000000    -0.000000    12.969643    -15.047576    -1.782640    0.000001    22.689035    0.000001    -9.172544    -11.340603    -1.121915    -0.000000    -0.324745    0.000001    -12.234603    -14.269527    -1.408628    0.000001    31.148466    0.000001    14.936321    -15.801169    -21.297232    -0.000000    -3.160141    -0.000000    
6.448812    92.534241    600.903992    1.659612    -3.640162    -159.753586    -0.109221    4.044634    2.461195    -0.546104    4.044462    2.492015    4.229434    8.332748    -19.951469    4.229434    8.332747    -19.951469    8.835858    -0.979412    3.866124    -65.431549    27.556015    -12.509039    -22.278912    -18.995327    -35.885529    32.122253    2.377921    4.307300    47.448208    38.866428    -34.355030    -35.000008    -0.000007    -0.000002    -0.000000    0.000000    -0.000000    0.000000    10.000001    -0.000001    -0.000000    0.000000    -0.000000    -0.000000    0.000000    -0.000000    -0.000000    0.000000    -0.000000    -0.000000    0.000000    -0.000000    -0.000000    0.000000    -0.000000    -0.000000    0.000000    -0.000000    -0.000000    0.000000    -0.000000    -0.000000    0.000000    -0.000000    -0.000003    -10.000003    -0.000000    -0.000000    0.000000    -0.000000    -0.000000    0.000000    -0.000000    -6.487743    -0.558131    -0.801742    50.526478    -2.420787    37.553043    15.308791    6.890735    49.503010    -58.502701    12.736539    -7.780327    -47.448212    38.866428    34.355042    35.000000    0.000003    -0.000003    -0.000000    0.000000    -0.000000    0.000005    10.000001    0.000004    -0.000000    0.000000    -0.000000    -0.000000    0.000000    -0.000000    -0.000000    0.000000    -0.000000    -0.000000    0.000000    -0.000000    -0.000000    0.000000    -0.000000    -0.000000    0.000000    -0.000000    -0.000000    0.000000    -0.000000    -0.000000    0.000000    -0.000000    0.000002    -9.999995    -0.000002    -0.000000    0.000000    -0.000000    -0.000000    0.000000    -0.000000    12.987725    -15.026560    -1.783447    -0.000002    22.651207    -0.000000    -9.172985    -11.330400    -1.077200    0.000000    -0.335540    -0.000001    -12.217252    -14.273830    -1.414061    0.000000    31.110907    0.000002    14.906940    -15.784752    -21.263535    -0.000000    -3.163703    0.000000    
6.448812    92.534241    600.903992    1.668864    -3.647005    -159.788895    -0.109748    4.042962    2.446931    -0.548743    4.042784    2.477882    4.234575    8.292127    -19.938028    4.234574    8.292123    -19.938026    8.852856    -0.936507    3.861795    -65.542603    27.615437    -12.406000    -22.323643    -19.107916    -35.785553    32.002945    2.376018    4.325436    47.448212    38.866432    -34.355034    -35.000000    -0.000003    -0.000001    -0.000000    0.000000    -0.000000    0.000002    10.000002    -0.000000    -0.000000    0.000000    -0.000000    -0.000000    0.000000    -0.000000    -0.000000    0.000000    -0.000000    -0.000000    0.000000    -0.000000    -0.000000    0.000000    -0.000000    -0.000000    0.000000    -0.000000    -0.000000    0.000000    -0.000000    -0.000000    0.000000    -0.000000    -0.000002    -10.000001    0.000001    -0.000000    0.000000    -0.000000    -0.000000    0.000000    -0.000000    -6.474414    -0.554226    -0.804812    50.558445    -2.496473    37.470734    15.372972    7.086065    49.782127    -58.503719    12.782289    -7.806926    -47.448212    38.866428    34.355038    35.000000    0.000003    -0.000006    -0.000000    0.000000    -0.000000    0.000002    10.000000    -0.000001    -0.000000    0.000000    -0.000000    -0.000000    0.000000    -0.000000    -0.000000    0.000000    -0.000000    -0.000000    0.000000    -0.000000    -0.000000    0.000000    -0.000000    -0.000000    0.000000    -0.000000    -0.000000    0.000000    -0.000000    -0.000000    0.000000    -0.000000    0.000003    -9.999998    0.000005    -0.000000    0.000000    -0.000000    -0.000000    0.000000    -0.000000    13.006688    -15.012703    -1.778942    -0.000001    22.624876    -0.000001    -9.173352    -11.324495    -1.044817    0.000000    -0.335789    -0.000001    -12.199413    -14.280490    -1.415200    0.000001    31.079987    -0.000002    14.886594    -15.773622    -21.234938    0.000000    -3.166291    0.000000    
